<svg width="14" height="14" viewBox="0 0 14 14" fill="none" xmlns="http://www.w3.org/2000/svg">
<path fill-rule="evenodd" clip-rule="evenodd" d="M4.49645 9.50337C6.28874 11.2956 9.19461 11.2956 10.9869 9.50337C12.7792 7.71112 12.7792 4.8053 10.9869 3.01305C9.19461 1.22079 6.28874 1.22079 4.49645 3.01305C2.70416 4.8053 2.70416 7.71112 4.49645 9.50337ZM3.31637 10.6834C5.7604 13.1274 9.72295 13.1274 12.167 10.6834C14.611 8.23945 14.611 4.27697 12.167 1.83299C9.72295 -0.610996 5.7604 -0.610996 3.31637 1.83299C0.872338 4.27697 0.872338 8.23945 3.31637 10.6834Z" fill="#4C4C4C"/>
<path d="M3.61183 8.61815L5.38195 10.3882L2.13673 13.6334C1.64792 14.1222 0.85541 14.1222 0.366604 13.6334C-0.122201 13.1446 -0.122201 12.3521 0.366604 11.8633L3.61183 8.61815Z" fill="#4C4C4C"/>
</svg>
