<svg width="40" height="40" viewBox="0 0 40 40" fill="none" xmlns="http://www.w3.org/2000/svg">
<path d="M25.9995 24.8194V27.397C26.0004 27.6362 25.9574 27.8731 25.8732 28.0923C25.7891 28.3116 25.6657 28.5084 25.5109 28.6702C25.3561 28.8319 25.1734 28.9551 24.9744 29.0318C24.7754 29.1084 24.5646 29.1369 24.3554 29.1154C22.0346 28.8281 19.8053 27.9246 17.8467 26.4776C16.0244 25.1584 14.4794 23.3984 13.3215 21.3224C12.0469 19.0809 11.2537 16.5289 11.0061 13.8731C10.9873 13.6355 11.0121 13.3961 11.0789 13.17C11.1457 12.9439 11.2532 12.7362 11.3944 12.56C11.5355 12.3838 11.7074 12.243 11.8989 12.1466C12.0905 12.0502 12.2976 12.0003 12.507 12.0001H14.7696C15.1356 11.996 15.4904 12.1436 15.7679 12.4155C16.0455 12.6874 16.2267 13.065 16.278 13.4779C16.3734 14.3028 16.5506 15.1127 16.8059 15.8923C16.9074 16.1998 16.9293 16.534 16.8692 16.8553C16.809 17.1766 16.6693 17.4716 16.4665 17.7052L15.5087 18.7964C16.5823 20.9474 18.1457 22.7284 20.0338 23.9516L20.9917 22.8604C21.1967 22.6294 21.4556 22.4702 21.7377 22.4016C22.0197 22.3331 22.3131 22.3581 22.583 22.4737C23.2673 22.7646 23.9782 22.9664 24.7023 23.0752C25.0687 23.1341 25.4033 23.3443 25.6424 23.6659C25.8816 23.9875 26.0087 24.398 25.9995 24.8194Z" stroke="#484848" stroke-width="1.5" stroke-linecap="round" stroke-linejoin="round"/>
<path d="M27.9997 18.8067C27.9997 14.7135 24.3193 11.4472 20.2725 11.8946" stroke="#484848" stroke-width="1.5" stroke-linecap="round" stroke-linejoin="round"/>
<path d="M24.9088 18.808C24.9088 16.5335 22.7006 14.7186 20.2725 14.9672" stroke="#484848" stroke-width="1.5" stroke-linecap="round" stroke-linejoin="round"/>
<circle opacity="0.8" cx="20" cy="20" r="19.5" stroke="#484848"/>
</svg>
