<svg width="40" height="40" viewBox="0 0 40 40" fill="none" xmlns="http://www.w3.org/2000/svg">
<path d="M26.2625 24.6418V26.7035C26.2633 26.8949 26.2203 27.0843 26.1362 27.2597C26.0522 27.435 25.9288 27.5925 25.7742 27.7218C25.6195 27.8512 25.4369 27.9497 25.2381 28.0111C25.0392 28.0724 24.8285 28.0951 24.6195 28.0779C22.3003 27.8481 20.0726 27.1255 18.1153 25.9682C16.2943 24.9131 14.7504 23.5053 13.5933 21.8449C12.3196 20.0521 11.5269 18.0109 11.2796 15.8867C11.2607 15.6967 11.2855 15.5052 11.3523 15.3243C11.4191 15.1435 11.5264 14.9773 11.6675 14.8364C11.8086 14.6955 11.9803 14.5829 12.1717 14.5058C12.3632 14.4287 12.5701 14.3888 12.7794 14.3886H15.0404C15.4061 14.3853 15.7607 14.5034 16.038 14.7209C16.3154 14.9384 16.4965 15.2404 16.5477 15.5706C16.6431 16.2304 16.8201 16.8782 17.0753 17.5017C17.1767 17.7477 17.1986 18.015 17.1385 18.272C17.0784 18.529 16.9387 18.7649 16.7361 18.9517L15.779 19.8245C16.8518 21.5449 18.4141 22.9695 20.301 23.9478L21.2581 23.075C21.463 22.8902 21.7217 22.7629 22.0036 22.7081C22.2854 22.6533 22.5786 22.6733 22.8484 22.7658C23.5321 22.9984 24.2426 23.1598 24.9662 23.2468C25.3323 23.2939 25.6666 23.462 25.9056 23.7193C26.1446 23.9765 26.2716 24.3048 26.2625 24.6418Z" stroke="white" stroke-width="1.5" stroke-linecap="round" stroke-linejoin="round"/>
<path d="M27.9997 18.8067C27.9997 14.7135 24.3193 11.4472 20.2725 11.8946" stroke="white" stroke-width="1.5" stroke-linecap="round" stroke-linejoin="round"/>
<path d="M24.9088 18.808C24.9088 16.5335 22.7006 14.7186 20.2725 14.9672" stroke="white" stroke-width="1.5" stroke-linecap="round" stroke-linejoin="round"/>
<circle opacity="0.8" cx="20" cy="20" r="19.5" stroke="white"/>
</svg>
